<svg width="24" height="24" viewBox="0 0 24 24" fill="none" xmlns="http://www.w3.org/2000/svg">
<g clip-path="url(#clip0_2545_134494)">
<path d="M1.19072 6.78177C0.427875 8.35939 0 10.1293 0 11.9991C0 13.869 0.427875 15.6389 1.19072 17.2165L12 18.26L22.8093 17.2165C23.5721 15.6389 24 13.869 24 11.9991C24 10.1293 23.5721 8.35939 22.8093 6.78177L12 5.73828L1.19072 6.78177Z" fill="#F0F0F0"/>
<path d="M1.19141 17.2188C3.13231 21.2327 7.24273 24.0014 12.0003 24.0014C16.7578 24.0014 20.8682 21.2327 22.8091 17.2188H1.19141Z" fill="#6DA544"/>
<path d="M1.19141 6.78262H22.8091C20.8682 2.76867 16.7578 0 12.0003 0C7.24278 0 3.13231 2.76867 1.19141 6.78262Z" fill="#FF9811"/>
<path d="M12.0001 16.1749C14.3052 16.1749 16.174 14.3062 16.174 12.001C16.174 9.69586 14.3052 7.82715 12.0001 7.82715C9.69489 7.82715 7.82617 9.69586 7.82617 12.001C7.82617 14.3062 9.69489 16.1749 12.0001 16.1749Z" fill="#FF9811"/>
</g>
<defs>
<clipPath id="clip0_2545_134494">
<rect width="24" height="24" fill="white"/>
</clipPath>
</defs>
</svg>
